# Blender v3.0.0 OBJ File: ''
# www.blender.org
mtllib 1.mtl
o Cube
v 1.132458 1.000000 1.000000
v 1.132458 -1.000000 1.000000
v 0.000000 -1.866314 1.000000
v 0.000000 1.000000 1.000000
v -1.132458 1.000000 1.000000
v -1.132458 -1.000000 1.000000
v -1.041004 -0.963114 1.000000
v -1.041004 0.919243 1.000000
v 1.041004 0.919243 1.000000
v 1.041004 -0.963114 1.000000
v 0.000000 0.919243 1.000000
v 0.000000 -1.759467 1.000000
vt 0.315139 0.669558
vt 0.971747 0.669557
vt 0.999917 0.697727
vt 0.302273 0.697727
vt 0.971747 0.028254
vt 0.315139 0.028253
vt 0.302273 0.000084
vt 0.999917 0.000085
vt 0.971746 0.348906
vt 0.999916 0.348906
vt 0.037354 0.348903
vt 0.000084 0.348903
vn 0.0000 0.0000 1.0000
usemtl Material
s off
f 7/1/1 8/2/1 5/3/1 6/4/1
f 9/5/1 10/6/1 2/7/1 1/8/1
f 8/2/1 11/9/1 4/10/1 5/3/1
f 10/6/1 12/11/1 3/12/1 2/7/1
f 12/11/1 7/1/1 6/4/1 3/12/1
f 11/9/1 9/5/1 1/8/1 4/10/1
